<svg width="34" height="37" viewBox="0 0 34 37" fill="none" xmlns="http://www.w3.org/2000/svg">
<path d="M20.1142 27.3416L17.0835 23.9916C15.6906 22.452 14.9941 21.6822 14.1922 21.3934C13.4868 21.1393 12.7276 21.1393 12.0222 21.3934C11.2203 21.6822 10.5238 22.452 9.13086 23.9916L2.07399 31.9138M20.1142 27.3416L20.7165 26.6755C22.1388 25.1035 22.8498 24.3175 23.6658 24.0307C24.3834 23.7784 25.1544 23.7882 25.8666 24.0589C26.6762 24.3667 27.371 25.1706 28.7604 26.7786L30.2353 28.4478M20.1142 27.3416L27.0941 35.2589M2.07399 31.9138C2.12819 32.426 2.22205 32.8283 2.38469 33.1841C2.72305 33.9243 3.263 34.5262 3.92709 34.9032C4.68207 35.332 5.67039 35.332 7.64706 35.332H24.5882C25.6846 35.332 26.477 35.332 27.0941 35.2589M2.07399 31.9138C2 31.2144 2 30.3095 2 29.0377V10.1546C2 7.95143 2 6.8498 2.38469 6.00828C2.72305 5.26805 3.263 4.66623 3.92709 4.28908C4.68207 3.86029 5.67039 3.8603 7.64706 3.8603H14.3529M27.0941 35.2589C27.5895 35.2001 27.9721 35.0942 28.3082 34.9032C28.9723 34.5262 29.5123 33.9243 29.8506 33.1841C30.2353 32.3426 30.2353 31.2409 30.2353 29.0377V21.5632M26.7059 13.6952V7.79426M26.7059 7.79426V1.89331M26.7059 7.79426H32M26.7059 7.79426H21.4118" stroke="#686868" stroke-width="3" stroke-linecap="round" stroke-linejoin="round"/>
</svg>
