<svg width="36" height="36" viewBox="0 0 36 36" fill="none" xmlns="http://www.w3.org/2000/svg">
<path d="M18 36C27.9411 36 36 27.9411 36 18C36 8.05887 27.9411 0 18 0C8.0589 0 3.05176e-05 8.05887 3.05176e-05 18C3.05176e-05 27.9411 8.0589 36 18 36Z" fill="#FFC500"/>
<path d="M19.2759 33.4513C9.33292 33.4513 1.27589 25.3913 1.27589 15.4513C1.27343 13.1418 1.71556 10.8535 2.57816 8.71118C0.886076 11.5137 -0.00559652 14.7264 2.64304e-05 18.0001C2.64304e-05 27.9401 8.05998 36.0001 18 36.0001C25.5584 36.0001 32.0287 31.3424 34.6948 24.7402C31.5447 29.961 25.8165 33.4513 19.2759 33.4513Z" fill="#FF9F1E"/>
<path d="M18 2.95892e-05C14.1433 -0.00698 10.3875 1.23159 7.29153 3.53139C11.5412 1.89148 16.2126 1.69666 20.584 2.97705C20.5464 3.02323 20.5139 3.07339 20.4872 3.12664C19.9534 4.12093 21.0416 5.73996 22.9128 6.74306C24.7841 7.74615 26.7375 7.75788 27.2713 6.76652C27.3222 6.66965 27.3587 6.56591 27.3798 6.45855C32.2252 10.2128 35.3547 16.0818 35.3841 22.6811C35.7941 21.1546 36.0012 19.5807 36 18C36 8.05999 27.94 2.95892e-05 18 2.95892e-05Z" fill="#FFE059"/>
<path d="M28.7132 8.70592C28.8084 8.21617 28.205 7.68685 27.3654 7.52365C26.5258 7.36046 25.768 7.62518 25.6728 8.11493C25.5776 8.60469 26.1811 9.13401 27.0206 9.2972C27.8602 9.4604 28.618 9.19567 28.7132 8.70592Z" fill="#FFE059"/>
<path d="M24.7962 9.38352C24.9355 9.14223 24.7641 8.78248 24.4134 8.58C24.0627 8.37752 23.6655 8.40898 23.5262 8.65027C23.3869 8.89156 23.5582 9.2513 23.9089 9.45379C24.2597 9.65627 24.6569 9.62481 24.7962 9.38352Z" fill="#FFE059"/>
<path d="M21.2762 25.5585C21.1551 25.5585 21.0353 25.5336 20.9242 25.4852C18.9562 24.6229 17.0438 24.6229 15.0758 25.4852C14.8619 25.5789 14.6195 25.5838 14.4019 25.4988C14.1844 25.4138 14.0095 25.2459 13.9158 25.032C13.822 24.8181 13.8171 24.5757 13.9021 24.3582C13.9871 24.1406 14.155 23.9657 14.3689 23.872C16.7769 22.8161 19.2231 22.8161 21.6311 23.872C21.8167 23.9529 21.9687 24.0953 22.0615 24.2753C22.1543 24.4552 22.1822 24.6617 22.1405 24.8598C22.0988 25.0579 21.9901 25.2356 21.8326 25.3629C21.6752 25.4901 21.4787 25.5592 21.2762 25.5585Z" fill="#00305F"/>
<path d="M12.9708 16.0791C13.0378 14.5433 12.3024 13.2638 11.3282 13.2212C10.3539 13.1787 9.50982 14.3892 9.44276 15.925C9.37571 17.4608 10.1111 18.7403 11.0854 18.7828C12.0596 18.8254 12.9037 17.6148 12.9708 16.0791Z" fill="#00305F"/>
<path d="M12.178 16.5248C12.4468 16.5248 12.6648 16.3068 12.6648 16.0379C12.6648 15.769 12.4468 15.551 12.178 15.551C11.9091 15.551 11.6911 15.769 11.6911 16.0379C11.6911 16.3068 11.9091 16.5248 12.178 16.5248Z" fill="white"/>
<path d="M13.7823 15.7416C13.673 15.7421 13.5646 15.7222 13.4626 15.683L7.73148 13.4451C7.51406 13.3603 7.33923 13.1926 7.24544 12.9789C7.15166 12.7652 7.14661 12.523 7.2314 12.3056C7.31619 12.0882 7.48387 11.9133 7.69757 11.8195C7.91126 11.7258 8.15346 11.7207 8.37088 11.8055L14.102 14.0434C14.2922 14.1185 14.4502 14.2576 14.549 14.4366C14.6478 14.6157 14.6812 14.8235 14.6433 15.0245C14.6055 15.2255 14.4989 15.407 14.3417 15.5378C14.1846 15.6687 13.9868 15.7408 13.7823 15.7416Z" fill="#00305F"/>
<path d="M24.851 18.9267C25.8261 18.8877 26.5668 17.6099 26.5053 16.0726C26.4438 14.5354 25.6035 13.3208 24.6283 13.3598C23.6531 13.3988 22.9125 14.6766 22.9739 16.2139C23.0354 17.7511 23.8758 18.9657 24.851 18.9267Z" fill="#00305F"/>
<path d="M23.8221 16.5248C24.091 16.5248 24.309 16.3068 24.309 16.0379C24.309 15.769 24.091 15.551 23.8221 15.551C23.5532 15.551 23.3352 15.769 23.3352 16.0379C23.3352 16.3068 23.5532 16.5248 23.8221 16.5248Z" fill="white"/>
<path d="M22.2177 15.7416C22.0132 15.7408 21.8154 15.6687 21.6583 15.5378C21.5012 15.407 21.3945 15.2255 21.3567 15.0245C21.3189 14.8235 21.3522 14.6157 21.451 14.4366C21.5498 14.2576 21.7078 14.1185 21.898 14.0434L27.6291 11.8055C27.7368 11.7635 27.8517 11.7431 27.9672 11.7456C28.0827 11.748 28.1966 11.7731 28.3024 11.8195C28.4083 11.866 28.5039 11.9328 28.5839 12.0162C28.6639 12.0996 28.7266 12.1979 28.7686 12.3056C28.8106 12.4132 28.831 12.5281 28.8286 12.6436C28.8262 12.7592 28.801 12.8731 28.7546 12.9789C28.7081 13.0847 28.6413 13.1803 28.5579 13.2603C28.4745 13.3403 28.3762 13.4031 28.2685 13.4451L22.5374 15.683C22.4354 15.7222 22.327 15.7421 22.2177 15.7416Z" fill="#00305F"/>
</svg>
