<svg width="36" height="36" viewBox="0 0 36 36" fill="none" xmlns="http://www.w3.org/2000/svg">
<path d="M18 36C27.9411 36 36 27.9411 36 18C36 8.05887 27.9411 0 18 0C8.0589 0 3.05176e-05 8.05887 3.05176e-05 18C3.05176e-05 27.9411 8.0589 36 18 36Z" fill="#FFC500"/>
<path d="M19.2759 33.4513C9.33292 33.4513 1.27589 25.3913 1.27589 15.4513C1.27343 13.1418 1.71556 10.8535 2.57816 8.71118C0.886076 11.5137 -0.00559652 14.7264 2.64304e-05 18.0001C2.64304e-05 27.9401 8.05998 36.0001 18 36.0001C25.5584 36.0001 32.0287 31.3424 34.6948 24.7402C31.5447 29.961 25.8165 33.4513 19.2759 33.4513Z" fill="#FF9F1E"/>
<path d="M18 2.95892e-05C14.1433 -0.00698 10.3875 1.23159 7.29153 3.53139C11.5412 1.89148 16.2126 1.69666 20.584 2.97705C20.5464 3.02323 20.5139 3.07339 20.4872 3.12664C19.9534 4.12093 21.0416 5.73996 22.9128 6.74306C24.7841 7.74615 26.7375 7.75788 27.2713 6.76652C27.3222 6.66965 27.3587 6.56591 27.3798 6.45855C32.2252 10.2128 35.3547 16.0818 35.3841 22.6811C35.7941 21.1546 36.0012 19.5807 36 18C36 8.05999 27.94 2.95892e-05 18 2.95892e-05Z" fill="#FFE059"/>
<path d="M28.7132 8.70592C28.8084 8.21617 28.205 7.68685 27.3654 7.52365C26.5258 7.36046 25.768 7.62518 25.6728 8.11493C25.5776 8.60469 26.1811 9.13401 27.0206 9.2972C27.8602 9.4604 28.618 9.19567 28.7132 8.70592Z" fill="#FFE059"/>
<path d="M24.7962 9.38352C24.9355 9.14223 24.7642 8.78248 24.4135 8.58C24.0627 8.37752 23.6655 8.40898 23.5262 8.65027C23.3869 8.89156 23.5583 9.2513 23.909 9.45379C24.2597 9.65627 24.6569 9.62481 24.7962 9.38352Z" fill="#FFE059"/>
<path d="M12.4052 14.312C12.4722 12.7762 11.7368 11.4967 10.7626 11.4542C9.78833 11.4116 8.9442 12.6221 8.87715 14.1579C8.8101 15.6937 9.54551 16.9732 10.5197 17.0157C11.494 17.0583 12.3381 15.8478 12.4052 14.312Z" fill="#00305F"/>
<path d="M11.5063 13.58C11.7752 13.58 11.9932 13.362 11.9932 13.0931C11.9932 12.8242 11.7752 12.6062 11.5063 12.6062C11.2374 12.6062 11.0194 12.8242 11.0194 13.0931C11.0194 13.362 11.2374 13.58 11.5063 13.58Z" fill="white"/>
<path d="M25.4916 16.9938C26.4658 16.9513 27.2012 15.6718 27.1342 14.136C27.0671 12.6002 26.223 11.3897 25.2487 11.4323C24.2745 11.4748 23.5391 12.7543 23.6062 14.2901C23.6732 15.8259 24.5173 17.0364 25.4916 16.9938Z" fill="#00305F"/>
<path d="M25.9602 13.58C26.2291 13.58 26.4471 13.362 26.4471 13.0931C26.4471 12.8242 26.2291 12.6062 25.9602 12.6062C25.6913 12.6062 25.4734 12.8242 25.4734 13.0931C25.4734 13.362 25.6913 13.58 25.9602 13.58Z" fill="white"/>
<path d="M13.0315 22.3997C12.7588 22.3997 12.4887 22.4534 12.2368 22.5577C11.9849 22.6621 11.7559 22.815 11.5631 23.0079C11.3703 23.2007 11.2173 23.4296 11.113 23.6816C11.0086 23.9335 10.9549 24.2035 10.9549 24.4762C10.9549 24.7489 11.0086 25.019 11.113 25.2709C11.2173 25.5229 11.3703 25.7518 11.5631 25.9446C11.7559 26.1374 11.9849 26.2904 12.2368 26.3948C12.4887 26.4991 12.7588 26.5528 13.0315 26.5528H22.9686C23.2413 26.5528 23.5113 26.4991 23.7632 26.3948C24.0152 26.2904 24.2441 26.1374 24.4369 25.9446C24.6298 25.7518 24.7827 25.5229 24.8871 25.2709C24.9914 25.019 25.0452 24.7489 25.0452 24.4762C25.0452 24.2035 24.9914 23.9335 24.8871 23.6816C24.7827 23.4296 24.6298 23.2007 24.4369 23.0079C24.2441 22.815 24.0152 22.6621 23.7632 22.5577C23.5113 22.4534 23.2413 22.3997 22.9686 22.3997H13.0315Z" fill="#00305F"/>
</svg>
