<svg width="17" height="15" viewBox="0 0 17 15" fill="none" xmlns="http://www.w3.org/2000/svg">
<path fill-rule="evenodd" clip-rule="evenodd" d="M16.6442 0.439199C16.872 0.720502 17 1.10198 17 1.49974C17 1.89751 16.872 2.27899 16.6442 2.56029L6.92119 14.5608C6.69327 14.842 6.38419 15 6.06192 15C5.73965 15 5.43057 14.842 5.20265 14.5608L0.341167 8.56055C0.119777 8.27763 -0.00272522 7.89871 4.39088e-05 7.5054C0.00281303 7.11209 0.130632 6.73585 0.355972 6.45773C0.581312 6.1796 0.886142 6.02184 1.20481 6.01843C1.52347 6.01501 1.83048 6.16621 2.0597 6.43946L6.06192 11.3792L14.9256 0.439199C15.1535 0.15798 15.4626 0 15.7849 0C16.1072 0 16.4162 0.15798 16.6442 0.439199Z" fill="#333333"/>
</svg>
