<svg width="11" height="7" viewBox="0 0 11 7" fill="none" xmlns="http://www.w3.org/2000/svg">
<path fill-rule="evenodd" clip-rule="evenodd" d="M0.292787 0.340282C0.480314 0.131322 0.734622 0.0139348 0.999786 0.0139348C1.26495 0.0139348 1.51926 0.131322 1.70679 0.340282L4.99979 4.01074L8.29279 0.340282C8.38503 0.233824 8.49538 0.148909 8.61738 0.0904929C8.73939 0.0320765 8.87061 0.00132816 9.00339 4.20849e-05C9.13616 -0.00124399 9.26784 0.0269577 9.39074 0.083002C9.51364 0.139046 9.62529 0.221811 9.71918 0.326466C9.81307 0.431121 9.88733 0.555571 9.93761 0.692554C9.98789 0.829538 10.0132 0.976311 10.012 1.12431C10.0109 1.27231 9.9833 1.41857 9.93089 1.55456C9.87848 1.69055 9.8023 1.81354 9.70679 1.91636L5.70679 6.37486C5.51926 6.58382 5.26495 6.70121 4.99979 6.70121C4.73462 6.70121 4.48031 6.58382 4.29279 6.37486L0.292787 1.91636C0.105316 1.70734 0 1.42388 0 1.12832C0 0.832763 0.105316 0.549305 0.292787 0.340282Z" fill="#2C5A2D"/>
</svg>
