<svg width="11" height="7" viewBox="0 0 11 7" fill="none" xmlns="http://www.w3.org/2000/svg">
<path fill-rule="evenodd" clip-rule="evenodd" d="M9.71942 6.36089C9.53189 6.56985 9.27758 6.68724 9.01242 6.68724C8.74726 6.68724 8.49295 6.56985 8.30542 6.36089L5.01242 2.69043L1.71942 6.36089C1.62717 6.46735 1.51683 6.55226 1.39482 6.61068C1.27282 6.6691 1.1416 6.69984 1.00882 6.70113C0.876042 6.70242 0.744363 6.67421 0.621467 6.61817C0.49857 6.56213 0.386919 6.47936 0.293026 6.37471C0.199133 6.27005 0.12488 6.1456 0.0745993 6.00862C0.0243184 5.87163 -0.000984062 5.72486 0.000169754 5.57686C0.00132357 5.42886 0.0289099 5.2826 0.0813189 5.14661C0.133728 5.01062 0.209911 4.88763 0.305421 4.78481L4.30542 0.326313C4.49295 0.117354 4.74726 -3.38554e-05 5.01242 -3.38554e-05C5.27758 -3.38554e-05 5.53189 0.117354 5.71942 0.326313L9.71942 4.78481C9.90689 4.99383 10.0122 5.27729 10.0122 5.57285C10.0122 5.86841 9.90689 6.15187 9.71942 6.36089Z" fill="#2C5A2D"/>
</svg>
