<svg width="30" height="30" viewBox="0 0 30 30" fill="none" xmlns="http://www.w3.org/2000/svg">
<path fill-rule="evenodd" clip-rule="evenodd" d="M14.7015 9.25118C14.8304 9.09035 15.0053 9 15.1876 9C15.3699 9 15.5447 9.09035 15.6737 9.25118L19.7987 14.3986C19.9276 14.5595 20 14.7777 20 15.0052C20 15.2327 19.9276 15.4508 19.7987 15.6117L15.6737 20.7592C15.544 20.9154 15.3703 21.0019 15.1901 21C15.0098 20.998 14.8374 20.9078 14.7099 20.7487C14.5824 20.5897 14.5101 20.3745 14.5085 20.1495C14.507 19.9246 14.5763 19.7079 14.7015 19.5461L17.653 15.8631H9.68751C9.50517 15.8631 9.3303 15.7727 9.20137 15.6118C9.07243 15.4509 9 15.2327 9 15.0052C9 14.7776 9.07243 14.5594 9.20137 14.3985C9.3303 14.2377 9.50517 14.1473 9.68751 14.1473H17.653L14.7015 10.4643C14.5726 10.3034 14.5002 10.0852 14.5002 9.85773C14.5002 9.63024 14.5726 9.41207 14.7015 9.25118Z" fill="#2C5A2D"/>
<path d="M15 1C22.732 1 29 7.26801 29 15C29 22.732 22.732 29 15 29C7.26801 29 1 22.732 1 15C1 7.26801 7.26801 1 15 1Z" stroke="#2C5A2D" stroke-width="2"/>
</svg>
