<svg width="36" height="36" viewBox="0 0 36 36" fill="none" xmlns="http://www.w3.org/2000/svg">
<path d="M18 36C27.9411 36 36 27.9411 36 18C36 8.05887 27.9411 0 18 0C8.0589 0 3.05176e-05 8.05887 3.05176e-05 18C3.05176e-05 27.9411 8.0589 36 18 36Z" fill="#FFC500"/>
<path d="M19.2759 33.4513C9.33292 33.4513 1.27589 25.3913 1.27589 15.4513C1.27343 13.1418 1.71556 10.8535 2.57816 8.71118C0.886076 11.5137 -0.00559652 14.7264 2.64304e-05 18.0001C2.64304e-05 27.9401 8.05998 36.0001 18 36.0001C25.5584 36.0001 32.0287 31.3424 34.6948 24.7402C31.5447 29.961 25.8165 33.4513 19.2759 33.4513Z" fill="#FF9F1E"/>
<path d="M18 2.95892e-05C14.1433 -0.00698 10.3875 1.23159 7.29153 3.53139C11.5412 1.89148 16.2126 1.69666 20.584 2.97705C20.5464 3.02323 20.5139 3.07339 20.4872 3.12664C19.9534 4.12093 21.0416 5.73996 22.9128 6.74306C24.7841 7.74615 26.7375 7.75788 27.2713 6.76652C27.3222 6.66965 27.3587 6.56591 27.3798 6.45855C32.2252 10.2128 35.3547 16.0818 35.3841 22.6811C35.7941 21.1546 36.0012 19.5807 36 18C36 8.05999 27.94 2.95892e-05 18 2.95892e-05Z" fill="#FFE059"/>
<path d="M28.7132 8.70592C28.8084 8.21617 28.205 7.68685 27.3654 7.52365C26.5258 7.36046 25.768 7.62518 25.6728 8.11493C25.5776 8.60469 26.1811 9.13401 27.0206 9.2972C27.8602 9.4604 28.618 9.19567 28.7132 8.70592Z" fill="#FFE059"/>
<path d="M24.7962 9.38352C24.9355 9.14223 24.7642 8.78248 24.4134 8.58C24.0627 8.37752 23.6655 8.40898 23.5262 8.65027C23.3869 8.89156 23.5582 9.2513 23.909 9.45379C24.2597 9.65627 24.6569 9.62481 24.7962 9.38352Z" fill="#FFE059"/>
<path d="M26.1274 14.7678C25.9655 14.7682 25.8066 14.7237 25.6684 14.6393C25.5301 14.5549 25.418 14.4339 25.3443 14.2897C24.9044 13.4303 24.3412 12.9141 23.8397 12.9141C23.3381 12.9141 22.775 13.4303 22.335 14.2897C22.2249 14.4903 22.0409 14.6401 21.8221 14.7073C21.6033 14.7745 21.367 14.7538 21.1632 14.6496C20.9594 14.5455 20.8043 14.366 20.7306 14.1493C20.657 13.9326 20.6707 13.6958 20.7688 13.489C21.5372 11.9843 22.6283 11.1543 23.8397 11.1543C25.051 11.1543 26.1421 11.9843 26.9105 13.489C26.9633 13.5916 26.9953 13.7036 27.0046 13.8186C27.014 13.9336 27.0006 14.0493 26.9652 14.1591C26.9298 14.2689 26.873 14.3707 26.7982 14.4585C26.7234 14.5463 26.632 14.6185 26.5293 14.671C26.4051 14.7354 26.2672 14.7686 26.1274 14.7678Z" fill="#00305F"/>
<path d="M9.87259 14.7678C9.73279 14.7686 9.59488 14.7354 9.47077 14.671C9.368 14.6185 9.2766 14.5463 9.20179 14.4585C9.12699 14.3707 9.07025 14.2689 9.03483 14.1591C8.99941 14.0493 8.986 13.9336 8.99538 13.8186C9.00476 13.7036 9.03673 13.5916 9.08947 13.489C9.85793 11.9843 10.949 11.1543 12.1604 11.1543C13.3717 11.1543 14.4628 11.9843 15.2312 13.489C15.3293 13.6958 15.343 13.9326 15.2694 14.1493C15.1957 14.366 15.0406 14.5455 14.8368 14.6496C14.633 14.7538 14.3967 14.7745 14.1779 14.7073C13.9591 14.6401 13.7752 14.4903 13.665 14.2897C13.225 13.4303 12.6619 12.9141 12.1604 12.9141C11.6588 12.9141 11.0957 13.4303 10.6557 14.2897C10.582 14.4339 10.4699 14.5549 10.3317 14.6393C10.1934 14.7237 10.0345 14.7682 9.87259 14.7678Z" fill="#00305F"/>
<path d="M13.5799 18.9268H22.4201C22.7919 18.9268 23.1485 19.0745 23.4114 19.3374C23.6744 19.6003 23.8221 19.9569 23.8221 20.3287C23.8225 21.0936 23.6721 21.8509 23.3797 22.5576C23.0873 23.2644 22.6585 23.9065 22.1179 24.4475C21.5772 24.9884 20.9353 25.4175 20.2287 25.7103C19.5221 26.003 18.7648 26.1537 18 26.1537C16.4559 26.1537 14.975 25.5403 13.8832 24.4485C12.7913 23.3566 12.178 21.8758 12.178 20.3317C12.178 19.9598 12.3257 19.6032 12.5886 19.3403C12.8515 19.0774 13.2081 18.9297 13.5799 18.9297V18.9268Z" fill="#00305F"/>
<path d="M15.2048 25.441C16.0617 25.91 17.0232 26.1552 18 26.1538C18.9769 26.1552 19.9383 25.91 20.7952 25.441C20.6397 23.6138 19.446 22.5403 18 22.5403C16.554 22.5403 15.3603 23.6138 15.2048 25.441Z" fill="#FF4F4F"/>
</svg>
