<svg width="36" height="36" viewBox="0 0 36 36" fill="none" xmlns="http://www.w3.org/2000/svg">
<path d="M18 36C27.9411 36 36 27.9411 36 18C36 8.05887 27.9411 0 18 0C8.05887 0 0 8.05887 0 18C0 27.9411 8.05887 36 18 36Z" fill="#FFC500"/>
<path d="M19.2759 33.4513C9.33292 33.4513 1.27589 25.3913 1.27589 15.4513C1.27343 13.1418 1.71556 10.8535 2.57816 8.71118C0.886076 11.5137 -0.00559652 14.7264 2.64304e-05 18.0001C2.64304e-05 27.9401 8.05998 36.0001 18 36.0001C25.5584 36.0001 32.0287 31.3424 34.6948 24.7402C31.5447 29.961 25.8165 33.4513 19.2759 33.4513Z" fill="#FF9F1E"/>
<path d="M18 2.95892e-05C14.1433 -0.00698 10.3875 1.23159 7.29153 3.53139C11.5412 1.89148 16.2126 1.69666 20.584 2.97705C20.5464 3.02323 20.5139 3.07339 20.4872 3.12664C19.9534 4.12093 21.0416 5.73996 22.9128 6.74306C24.7841 7.74615 26.7375 7.75788 27.2713 6.76652C27.3222 6.66965 27.3587 6.56591 27.3798 6.45855C32.2252 10.2128 35.3547 16.0818 35.3841 22.6811C35.7941 21.1546 36.0012 19.5807 36 18C36 8.05999 27.94 2.95892e-05 18 2.95892e-05Z" fill="#FFE059"/>
<path d="M28.7132 8.70592C28.8084 8.21617 28.205 7.68685 27.3654 7.52365C26.5258 7.36046 25.7681 7.62518 25.6729 8.11493C25.5777 8.60469 26.1811 9.13401 27.0207 9.2972C27.8602 9.4604 28.618 9.19567 28.7132 8.70592Z" fill="#FFE059"/>
<path d="M24.7962 9.38352C24.9355 9.14223 24.7641 8.78248 24.4134 8.58C24.0627 8.37752 23.6655 8.40898 23.5262 8.65027C23.3869 8.89156 23.5582 9.2513 23.9089 9.45379C24.2597 9.65627 24.6569 9.62481 24.7962 9.38352Z" fill="#FFE059"/>
<path d="M15.3192 12.7382C15.0939 12.5128 14.8265 12.3339 14.5321 12.2119C14.2377 12.0899 13.9221 12.0271 13.6034 12.0271C13.2847 12.0271 12.9691 12.0899 12.6747 12.2119C12.3803 12.3339 12.1128 12.5128 11.8876 12.7382C11.6604 12.5112 11.3904 12.3316 11.0933 12.2097C10.7961 12.0879 10.4777 12.0263 10.1566 12.0285C9.83544 12.0307 9.51792 12.0966 9.22246 12.2225C8.927 12.3483 8.65947 12.5316 8.4354 12.7617C7.50563 13.7149 7.54082 15.2518 8.48526 16.1933L11.1514 18.8624C11.3448 19.0544 11.6062 19.1621 11.8788 19.1621C12.1513 19.1621 12.4128 19.0544 12.6062 18.8624L15.1227 16.3429C15.1917 16.2883 15.2573 16.2295 15.3192 16.1669C15.5446 15.9419 15.7233 15.6747 15.8453 15.3805C15.9673 15.0863 16.0301 14.771 16.0301 14.4526C16.0301 14.1341 15.9673 13.8188 15.8453 13.5246C15.7233 13.2304 15.5446 12.9632 15.3192 12.7382Z" fill="#FF4F4F"/>
<path d="M20.6808 12.7382C20.9061 12.5128 21.1736 12.3339 21.468 12.2119C21.7624 12.0899 22.0779 12.0271 22.3966 12.0271C22.7153 12.0271 23.0309 12.0899 23.3253 12.2119C23.6197 12.3339 23.8872 12.5128 24.1125 12.7382C24.3396 12.5112 24.6096 12.3316 24.9068 12.2097C25.2039 12.0879 25.5223 12.0263 25.8434 12.0285C26.1646 12.0307 26.4821 12.0966 26.7776 12.2225C27.073 12.3483 27.3406 12.5316 27.5646 12.7617C28.4944 13.7149 28.4592 15.2518 27.5148 16.1933L24.8486 18.8624C24.6552 19.0544 24.3938 19.1621 24.1213 19.1621C23.8487 19.1621 23.5873 19.0544 23.3939 18.8624L20.8773 16.3429C20.8083 16.2883 20.7427 16.2295 20.6808 16.1669C20.4555 15.9419 20.2767 15.6747 20.1547 15.3805C20.0328 15.0863 19.97 14.771 19.97 14.4526C19.97 14.1341 20.0328 13.8188 20.1547 13.5246C20.2767 13.2304 20.4555 12.9632 20.6808 12.7382Z" fill="#FF4F4F"/>
<path d="M14.105 14.3278C14.4516 14.3278 14.7326 14.0468 14.7326 13.7002C14.7326 13.3535 14.4516 13.0725 14.105 13.0725C13.7583 13.0725 13.4773 13.3535 13.4773 13.7002C13.4773 14.0468 13.7583 14.3278 14.105 14.3278Z" fill="white"/>
<path d="M26.626 14.3278C26.9727 14.3278 27.2537 14.0468 27.2537 13.7002C27.2537 13.3535 26.9727 13.0725 26.626 13.0725C26.2794 13.0725 25.9984 13.3535 25.9984 13.7002C25.9984 14.0468 26.2794 14.3278 26.626 14.3278Z" fill="white"/>
<path d="M17.9355 27.1305C16.3111 27.1309 14.7085 26.7575 13.2514 26.0395C11.8289 25.3473 10.5501 24.3559 9.45318 23.0918C9.30872 22.9145 9.23895 22.688 9.25864 22.4601C9.27833 22.2323 9.38594 22.0211 9.55867 21.8713C9.7314 21.7214 9.95568 21.6447 10.184 21.6574C10.4123 21.67 10.6267 21.7711 10.7818 21.9391C12.7088 24.1535 15.2488 25.3707 17.9355 25.3707C19.3199 25.3707 20.6603 25.051 21.9244 24.4204C23.1885 23.7898 24.262 22.9217 25.2094 21.7954C25.3618 21.6248 25.5747 21.5202 25.803 21.5039C26.0312 21.4877 26.2568 21.5609 26.4319 21.7082C26.607 21.8555 26.7179 22.0651 26.741 22.2928C26.7641 22.5204 26.6976 22.7481 26.5557 22.9275C25.4528 24.2386 24.1594 25.271 22.7105 25.9925C21.2301 26.7412 19.5944 27.131 17.9355 27.1305Z" fill="#00305F"/>
</svg>
