<svg width="45" height="45" viewBox="0 0 45 45" fill="none" xmlns="http://www.w3.org/2000/svg">
<g clip-path="url(#clip0_35_831)">
<path d="M31.5079 15.5173C32.6263 15.5173 33.5329 14.6107 33.5329 13.4923C33.5329 12.3739 32.6263 11.4673 31.5079 11.4673C30.3895 11.4673 29.4829 12.3739 29.4829 13.4923C29.4829 14.6107 30.3895 15.5173 31.5079 15.5173Z" fill="white"/>
<path d="M22.4999 13.8345C20.7861 13.8345 19.1107 14.3427 17.6856 15.2949C16.2606 16.2471 15.1499 17.6005 14.494 19.1839C13.8381 20.7673 13.6665 22.5097 14.0009 24.1906C14.3352 25.8716 15.1605 27.4157 16.3724 28.6276C17.5844 29.8395 19.1284 30.6648 20.8094 30.9992C22.4903 31.3335 24.2327 31.1619 25.8161 30.506C27.3996 29.8502 28.7529 28.7395 29.7051 27.3144C30.6573 25.8894 31.1655 24.214 31.1655 22.5001C31.1655 20.2018 30.2526 17.9977 28.6275 16.3726C27.0023 14.7475 24.7982 13.8345 22.4999 13.8345ZM22.4999 28.1251C21.3874 28.1251 20.2999 27.7952 19.3749 27.1771C18.4498 26.559 17.7289 25.6805 17.3031 24.6527C16.8774 23.6248 16.766 22.4938 16.983 21.4027C17.2001 20.3115 17.7358 19.3093 18.5225 18.5226C19.3091 17.7359 20.3114 17.2002 21.4026 16.9831C22.4937 16.7661 23.6247 16.8775 24.6525 17.3032C25.6804 17.729 26.5589 18.45 27.177 19.375C27.795 20.3 28.1249 21.3875 28.1249 22.5001C28.1249 23.9919 27.5323 25.4226 26.4774 26.4775C25.4225 27.5324 23.9918 28.1251 22.4999 28.1251Z" fill="white"/>
<path d="M22.5 8.66559C27.0058 8.66559 27.5396 8.68275 29.3189 8.76403C30.389 8.77677 31.4489 8.97332 32.4525 9.34509C33.1802 9.6259 33.8411 10.0559 34.3927 10.6075C34.9442 11.159 35.3742 11.82 35.655 12.5477C36.0268 13.5512 36.2234 14.6111 36.2361 15.6812C36.3173 17.4606 36.3345 17.9944 36.3345 22.5001C36.3345 27.0059 36.3174 27.5397 36.2361 29.319C36.2234 30.3891 36.0268 31.4491 35.655 32.4526C35.3742 33.1803 34.9442 33.8412 34.3927 34.3928C33.8411 34.9444 33.1802 35.3744 32.4525 35.6552C31.4489 36.027 30.389 36.2235 29.3189 36.2362C27.5397 36.3174 27.0062 36.3347 22.5 36.3347C17.9938 36.3347 17.4603 36.3175 15.6811 36.2362C14.611 36.2235 13.5511 36.027 12.5475 35.6552C11.8198 35.3744 11.1589 34.9444 10.6073 34.3928C10.0558 33.8412 9.62576 33.1803 9.34495 32.4526C8.97318 31.4491 8.77663 30.3891 8.76389 29.319C8.68275 27.5397 8.66545 27.0059 8.66545 22.5001C8.66545 17.9944 8.68261 17.4606 8.76389 15.6812C8.77663 14.6111 8.97318 13.5512 9.34495 12.5477C9.62574 11.8199 10.0558 11.159 10.6073 10.6074C11.1589 10.0558 11.8198 9.62578 12.5475 9.34495C13.5511 8.97318 14.611 8.77663 15.6811 8.76389C17.4604 8.68275 17.9942 8.66559 22.5 8.66559ZM22.5 5.625C17.917 5.625 17.3423 5.64441 15.5424 5.72653C14.1427 5.75463 12.7579 6.01986 11.4469 6.51094C10.3257 6.9445 9.30751 7.60753 8.45752 8.45752C7.60753 9.30751 6.9445 10.3257 6.51094 11.4469C6.01978 12.7581 5.75455 14.1432 5.72653 15.5431C5.64441 17.3423 5.625 17.917 5.625 22.5C5.625 27.083 5.64441 27.6577 5.72653 29.4576C5.75457 30.8575 6.0198 32.2426 6.51094 33.5538C6.9445 34.675 7.60753 35.6932 8.45752 36.5432C9.30751 37.3932 10.3257 38.0562 11.4469 38.4898C12.7581 38.9809 14.1432 39.2462 15.5431 39.2742C17.3423 39.3556 17.917 39.375 22.5 39.375C27.083 39.375 27.6577 39.3556 29.4576 39.2735C30.8575 39.2454 32.2426 38.9802 33.5538 38.4891C34.675 38.0555 35.6932 37.3925 36.5432 36.5425C37.3932 35.6925 38.0562 34.6743 38.4898 33.5531C38.9809 32.2419 39.2461 30.8568 39.2742 29.4569C39.3556 27.6577 39.375 27.083 39.375 22.5C39.375 17.917 39.3556 17.3423 39.2735 15.5424C39.2454 14.1427 38.9801 12.7579 38.4891 11.4469C38.0554 10.3258 37.3924 9.30778 36.5424 8.45791C35.6924 7.60805 34.6742 6.94513 33.5531 6.51164C32.2419 6.0205 30.8568 5.75527 29.4569 5.72723C27.6577 5.64441 27.083 5.625 22.5 5.625Z" fill="white"/>
</g>
<defs>
<clipPath id="clip0_35_831">
<rect width="45" height="45" fill="white"/>
</clipPath>
</defs>
</svg>
