<svg width="194" height="44" viewBox="0 0 194 44" fill="none" xmlns="http://www.w3.org/2000/svg">
<path d="M14.696 32.576C11.72 32.576 9.16 31.968 7.016 30.752C4.904 29.536 3.272 27.792 2.12 25.52C0.968 23.248 0.392 20.56 0.392 17.456C0.392 13.968 1.064 10.976 2.408 8.48C3.784 5.952 5.752 4.016 8.312 2.672C10.872 1.296 13.912 0.607998 17.432 0.607998C18.488 0.607998 19.576 0.671998 20.696 0.799998C21.816 0.927999 22.84 1.072 23.768 1.232C24.728 1.392 25.496 1.536 26.072 1.664C26.648 1.76 26.936 1.808 26.936 1.808L27.272 2.432C27.272 2.432 27.192 2.816 27.032 3.584C26.872 4.352 26.68 5.408 26.456 6.752C26.264 8.064 26.12 9.536 26.024 11.168L21.416 11.504C21.416 11.504 21.432 11.248 21.464 10.736C21.528 10.192 21.56 9.568 21.56 8.864C21.56 7.52 21.16 6.576 20.36 6.032C19.56 5.456 18.2 5.168 16.28 5.168C14.36 5.168 12.76 5.552 11.48 6.32C10.2 7.088 9.224 8.272 8.552 9.872C7.912 11.44 7.592 13.424 7.592 15.824C7.592 18.448 7.928 20.688 8.6 22.544C9.272 24.4 10.216 25.808 11.432 26.768C12.648 27.728 14.12 28.208 15.848 28.208C16.808 28.208 17.64 28.096 18.344 27.872C19.08 27.648 19.64 27.44 20.024 27.248C20.408 27.024 20.6 26.912 20.6 26.912V22.352C20.6 21.392 20.456 20.768 20.168 20.48C19.912 20.192 19.336 20.048 18.44 20.048C18.152 20.048 17.8 20.048 17.384 20.048C17 20.048 16.664 20.048 16.376 20.048C16.088 20.048 15.944 20.048 15.944 20.048L15.704 19.664L16.184 16.256C16.568 16.256 17.112 16.272 17.816 16.304C18.52 16.304 19.304 16.32 20.168 16.352C21.064 16.384 21.96 16.4 22.856 16.4C23.656 16.4 24.424 16.384 25.16 16.352C25.896 16.288 26.488 16.24 26.936 16.208C27.416 16.176 27.656 16.16 27.656 16.16L27.992 17.984C27.448 18.336 27.032 18.784 26.744 19.328C26.488 19.84 26.312 20.608 26.216 21.632C26.12 22.624 26.072 24.032 26.072 25.856C26.072 26.752 26.088 27.568 26.12 28.304C26.184 29.008 26.28 29.584 26.408 30.032L25.976 30.608C25.976 30.608 25.512 30.784 24.584 31.136C23.656 31.456 22.344 31.776 20.648 32.096C18.952 32.416 16.968 32.576 14.696 32.576ZM31.5808 29.264C32.5408 29.2 33.1808 28.944 33.5008 28.496C33.8528 28.048 34.0288 27.2 34.0288 25.952V16.4C34.0288 15.312 33.8848 14.576 33.5968 14.192C33.3088 13.776 32.7648 13.568 31.9648 13.568C31.7728 13.568 31.5648 13.584 31.3408 13.616C31.1488 13.616 31.0527 13.616 31.0527 13.616L30.8128 13.28L31.1008 10.88C32.4768 10.656 33.8208 10.416 35.1328 10.16C36.4448 9.904 37.5328 9.696 38.3968 9.536C39.2928 9.344 39.7408 9.248 39.7408 9.248L40.1728 9.68C40.1728 9.68 40.1248 9.92 40.0288 10.4C39.9648 10.848 39.9008 11.424 39.8368 12.128C39.7728 12.8 39.7248 13.488 39.6928 14.192L39.9808 14.384C41.0048 12.88 42.1088 11.712 43.2928 10.88C44.4768 10.048 45.6128 9.632 46.7008 9.632C47.2128 9.632 47.6128 9.664 47.9008 9.728C48.2208 9.76 48.3808 9.776 48.3808 9.776L48.5728 10.16C48.5728 10.16 48.5248 10.432 48.4288 10.976C48.3648 11.488 48.2688 12.176 48.1408 13.04C48.0448 13.904 47.9328 14.848 47.8048 15.872C47.7088 16.896 47.6448 17.888 47.6128 18.848L44.5408 19.04C44.5408 17.504 44.4448 16.496 44.2528 16.016C44.0928 15.504 43.7408 15.248 43.1968 15.248C42.6848 15.248 42.1408 15.44 41.5648 15.824C40.9888 16.208 40.4448 16.736 39.9328 17.408C39.9328 17.408 39.9168 17.696 39.8848 18.272C39.8528 18.816 39.8048 19.52 39.7408 20.384C39.7088 21.248 39.6768 22.128 39.6448 23.024C39.6128 23.92 39.5808 24.704 39.5488 25.376C39.5168 26.048 39.5008 26.48 39.5008 26.672C39.5008 27.504 39.6288 28.08 39.8848 28.4C40.1728 28.72 40.6688 28.88 41.3728 28.88C41.8208 28.88 42.3328 28.864 42.9088 28.832C43.4848 28.768 43.7728 28.736 43.7728 28.736L43.9168 29.024L43.3888 32.192C43.3888 32.192 43.1808 32.176 42.7648 32.144C42.3488 32.112 41.8048 32.08 41.1328 32.048C40.4928 32.048 39.8208 32.032 39.1168 32C38.4128 32 37.7728 32 37.1968 32C36.2368 32 35.2928 32.016 34.3648 32.048C33.4368 32.08 32.6688 32.112 32.0608 32.144C31.4848 32.176 31.1968 32.192 31.1968 32.192L31.5808 29.264ZM60.8304 32.576C58.5904 32.576 56.6544 32.128 55.0224 31.232C53.4224 30.336 52.1744 29.056 51.2784 27.392C50.4144 25.728 49.9824 23.776 49.9824 21.536C49.9824 19.776 50.2704 18.16 50.8464 16.688C51.4224 15.216 52.2224 13.936 53.2464 12.848C54.2704 11.728 55.4704 10.864 56.8464 10.256C58.2224 9.616 59.7104 9.296 61.3104 9.296C66.6864 9.296 69.3744 12.016 69.3744 17.456C69.3744 17.936 69.3264 18.432 69.2304 18.944C69.1664 19.456 69.1024 19.856 69.0384 20.144L68.4624 20.72H56.0304C56.0944 22.928 56.6064 24.656 57.5664 25.904C58.5584 27.12 59.9344 27.792 61.6944 27.92C63.4544 28.048 65.5184 27.568 67.8864 26.48L68.2224 26.672L68.9904 29.024C68.3504 29.504 67.5504 30.032 66.5904 30.608C65.6304 31.152 64.6384 31.616 63.6144 32C62.5904 32.384 61.6624 32.576 60.8304 32.576ZM56.0304 18.08L62.6064 17.696C62.9904 17.664 63.2304 17.584 63.3264 17.456C63.4544 17.296 63.5184 17.008 63.5184 16.592C63.5184 15.44 63.2624 14.56 62.7504 13.952C62.2384 13.344 61.4864 13.04 60.4944 13.04C59.2464 13.04 58.2224 13.472 57.4224 14.336C56.6544 15.168 56.1904 16.416 56.0304 18.08ZM83.0023 32.576C80.7623 32.576 78.8263 32.128 77.1943 31.232C75.5943 30.336 74.3463 29.056 73.4503 27.392C72.5863 25.728 72.1543 23.776 72.1543 21.536C72.1543 19.776 72.4423 18.16 73.0183 16.688C73.5943 15.216 74.3943 13.936 75.4183 12.848C76.4423 11.728 77.6423 10.864 79.0183 10.256C80.3943 9.616 81.8823 9.296 83.4823 9.296C88.8583 9.296 91.5463 12.016 91.5463 17.456C91.5463 17.936 91.4983 18.432 91.4023 18.944C91.3383 19.456 91.2743 19.856 91.2103 20.144L90.6343 20.72H78.2023C78.2663 22.928 78.7783 24.656 79.7383 25.904C80.7303 27.12 82.1063 27.792 83.8663 27.92C85.6263 28.048 87.6903 27.568 90.0583 26.48L90.3943 26.672L91.1623 29.024C90.5223 29.504 89.7223 30.032 88.7623 30.608C87.8023 31.152 86.8103 31.616 85.7863 32C84.7623 32.384 83.8343 32.576 83.0023 32.576ZM78.2023 18.08L84.7783 17.696C85.1623 17.664 85.4023 17.584 85.4983 17.456C85.6263 17.296 85.6903 17.008 85.6903 16.592C85.6903 15.44 85.4343 14.56 84.9223 13.952C84.4103 13.344 83.6583 13.04 82.6663 13.04C81.4183 13.04 80.3943 13.472 79.5943 14.336C78.8263 15.168 78.3623 16.416 78.2023 18.08ZM108.39 29.408C109.19 29.248 109.75 28.96 110.07 28.544C110.422 28.096 110.614 27.488 110.646 26.72L110.79 18.416C110.79 17.008 110.534 15.968 110.022 15.296C109.51 14.592 108.726 14.24 107.67 14.24C107.158 14.24 106.614 14.352 106.038 14.576C105.494 14.768 104.998 15.008 104.55 15.296C104.102 15.584 103.734 15.84 103.446 16.064C103.414 16.928 103.366 17.904 103.302 18.992C103.238 20.08 103.174 21.168 103.11 22.256C103.078 23.312 103.046 24.256 103.014 25.088C102.982 25.92 102.966 26.512 102.966 26.864C102.966 27.696 103.078 28.272 103.302 28.592C103.526 28.88 103.894 29.024 104.406 29.024C104.63 29.024 104.902 29.024 105.222 29.024C105.542 28.992 105.702 28.976 105.702 28.976L105.798 29.168L105.318 32.144C105.318 32.144 105.03 32.128 104.454 32.096C103.878 32.064 103.19 32.032 102.39 32C101.622 32 100.918 32 100.278 32C99.4461 32 98.5821 32.016 97.6861 32.048C96.8221 32.112 96.0861 32.16 95.4781 32.192C94.9021 32.256 94.6141 32.288 94.6141 32.288L94.9981 29.312C95.9261 29.184 96.5661 28.928 96.9181 28.544C97.3021 28.16 97.4941 27.52 97.4941 26.624V16.448C97.4941 15.36 97.3181 14.608 96.9661 14.192C96.6461 13.776 96.0381 13.568 95.1421 13.568H94.5181L94.3261 13.328L94.5661 10.832C96.0381 10.608 97.4461 10.384 98.7901 10.16C100.134 9.904 101.238 9.696 102.102 9.536C102.966 9.344 103.398 9.248 103.398 9.248L103.782 9.728C103.782 9.728 103.702 10.08 103.542 10.784C103.414 11.456 103.318 12.208 103.254 13.04L103.446 13.232C103.83 12.912 104.294 12.528 104.838 12.08C105.414 11.632 106.006 11.2 106.614 10.784C107.254 10.368 107.846 10.016 108.39 9.728C108.934 9.44 109.366 9.296 109.686 9.296C111.958 9.296 113.718 9.84 114.966 10.928C116.246 12.016 116.886 13.536 116.886 15.488C116.886 15.968 116.838 16.704 116.742 17.696C116.646 18.688 116.534 19.776 116.406 20.96C116.31 22.144 116.214 23.264 116.118 24.32C116.054 25.376 116.022 26.208 116.022 26.816C116.022 27.616 116.134 28.208 116.358 28.592C116.582 28.944 116.966 29.12 117.51 29.12C117.798 29.12 118.118 29.104 118.47 29.072C118.822 29.04 118.998 29.024 118.998 29.024L119.094 29.216L118.662 32.144C118.662 32.144 118.47 32.128 118.086 32.096C117.734 32.096 117.286 32.08 116.742 32.048C116.198 32.048 115.638 32.032 115.062 32C114.486 32 113.958 32 113.478 32C112.998 32 112.454 32.016 111.846 32.048C111.27 32.112 110.694 32.16 110.118 32.192C109.542 32.224 109.062 32.256 108.678 32.288C108.326 32.352 108.15 32.384 108.15 32.384L108.39 29.408ZM121.392 32.48L121.776 29.264C122.992 29.072 123.824 28.688 124.272 28.112C124.72 27.536 124.944 26.544 124.944 25.136L124.992 6.752C124.992 5.76 124.88 5.104 124.656 4.784C124.432 4.432 123.968 4.256 123.264 4.256C122.976 4.256 122.656 4.272 122.304 4.304C121.952 4.304 121.776 4.304 121.776 4.304L121.536 3.92L121.92 1.136C122.304 1.136 122.864 1.152 123.6 1.184C124.336 1.184 125.12 1.184 125.952 1.184C126.816 1.184 127.616 1.184 128.352 1.184C128.896 1.184 129.568 1.168 130.368 1.136C131.2 1.104 132.016 1.072 132.816 1.04C133.616 1.008 134.288 0.975999 134.832 0.943999C135.376 0.879998 135.648 0.847998 135.648 0.847998L135.312 4.16C134.224 4.288 133.424 4.48 132.912 4.736C132.432 4.96 132.112 5.312 131.952 5.792C131.824 6.24 131.728 6.896 131.664 7.76C131.536 9.488 131.424 11.36 131.328 13.376C131.264 15.36 131.216 17.376 131.184 19.424C131.152 21.472 131.136 23.456 131.136 25.376C131.136 26.176 131.2 26.8 131.328 27.248C131.488 27.664 131.792 27.952 132.24 28.112C132.688 28.24 133.328 28.304 134.16 28.304C135.312 28.304 136.256 28.224 136.992 28.064C137.728 27.872 138.304 27.52 138.72 27.008C139.168 26.464 139.52 25.728 139.776 24.8C140.032 23.84 140.256 22.592 140.448 21.056L144.336 20.624L144.672 21.104C144.672 21.104 144.592 21.616 144.432 22.64C144.304 23.664 144.144 24.992 143.952 26.624C143.76 28.256 143.584 30.016 143.424 31.904L142.944 32.384C142.944 32.384 142.512 32.368 141.648 32.336C140.784 32.304 139.664 32.256 138.288 32.192C136.944 32.16 135.488 32.112 133.92 32.048C132.384 32.016 130.912 32 129.504 32C128.128 32 126.816 32.032 125.568 32.096C124.32 32.192 123.312 32.272 122.544 32.336C121.776 32.432 121.392 32.48 121.392 32.48ZM156.445 32.576C154.397 32.576 152.621 32.128 151.117 31.232C149.613 30.336 148.429 29.056 147.565 27.392C146.733 25.728 146.317 23.792 146.317 21.584C146.317 19.152 146.797 17.024 147.757 15.2C148.749 13.344 150.109 11.904 151.837 10.88C153.597 9.824 155.613 9.296 157.885 9.296C159.965 9.296 161.757 9.744 163.261 10.64C164.765 11.536 165.917 12.8 166.717 14.432C167.549 16.064 167.965 18 167.965 20.24C167.965 22.672 167.485 24.816 166.525 26.672C165.565 28.528 164.205 29.984 162.445 31.04C160.717 32.064 158.717 32.576 156.445 32.576ZM157.405 28.976C158.781 28.976 159.821 28.432 160.525 27.344C161.261 26.224 161.629 24.592 161.629 22.448C161.629 20.432 161.437 18.752 161.053 17.408C160.669 16.032 160.109 15.008 159.373 14.336C158.669 13.664 157.805 13.328 156.781 13.328C155.405 13.328 154.349 13.872 153.613 14.96C152.909 16.048 152.557 17.68 152.557 19.856C152.557 21.872 152.749 23.568 153.133 24.944C153.517 26.288 154.061 27.296 154.765 27.968C155.501 28.64 156.381 28.976 157.405 28.976ZM180.139 43.616C178.443 43.616 176.955 43.328 175.675 42.752C174.427 42.208 173.451 41.424 172.747 40.4C172.043 39.408 171.691 38.224 171.691 36.848C172.075 36.432 172.699 35.904 173.563 35.264C174.459 34.624 175.435 33.984 176.491 33.344V33.008C174.955 32.752 173.771 32.208 172.939 31.376C172.107 30.512 171.643 29.424 171.547 28.112C172.123 27.536 172.731 26.976 173.371 26.432C174.043 25.888 174.747 25.376 175.483 24.896V23.936L178.747 24.896C178.043 25.344 177.515 25.744 177.163 26.096C176.843 26.448 176.683 26.8 176.683 27.152C176.683 27.728 177.067 28.144 177.835 28.4C178.635 28.656 179.643 28.848 180.859 28.976C182.107 29.104 183.419 29.248 184.795 29.408C186.171 29.568 187.467 29.824 188.683 30.176C189.899 30.528 190.891 31.056 191.659 31.76C192.459 32.464 192.859 33.44 192.859 34.688C192.859 35.808 192.507 36.896 191.803 37.952C191.099 39.04 190.139 40 188.923 40.832C187.739 41.696 186.379 42.368 184.843 42.848C183.339 43.36 181.771 43.616 180.139 43.616ZM181.963 40.064C183.019 40.064 183.963 39.904 184.795 39.584C185.627 39.296 186.283 38.88 186.763 38.336C187.275 37.792 187.531 37.184 187.531 36.512C187.531 36 187.323 35.584 186.907 35.264C186.523 34.976 185.755 34.704 184.603 34.448C183.451 34.192 181.739 33.92 179.467 33.632C178.891 34.144 178.443 34.704 178.123 35.312C177.803 35.92 177.643 36.512 177.643 37.088C177.643 38.016 178.011 38.736 178.747 39.248C179.515 39.792 180.587 40.064 181.963 40.064ZM181.819 22.736C182.971 22.736 183.851 22.336 184.459 21.536C185.099 20.736 185.419 19.584 185.419 18.08C185.419 16.416 185.051 15.12 184.315 14.192C183.579 13.264 182.571 12.8 181.291 12.8C180.139 12.8 179.259 13.2 178.651 14C178.043 14.8 177.739 15.968 177.739 17.504C177.739 19.136 178.091 20.416 178.795 21.344C179.531 22.272 180.539 22.736 181.819 22.736ZM180.955 25.904C179.131 25.904 177.531 25.584 176.155 24.944C174.779 24.272 173.707 23.36 172.939 22.208C172.203 21.024 171.835 19.664 171.835 18.128C171.835 16.432 172.267 14.912 173.131 13.568C173.995 12.224 175.179 11.168 176.683 10.4C178.187 9.632 179.883 9.248 181.771 9.248C182.795 9.248 183.691 9.328 184.459 9.488C185.227 9.648 185.979 9.728 186.715 9.728C187.355 9.664 188.283 9.488 189.499 9.2C190.715 8.912 192.027 8.56 193.435 8.144L193.723 8.336L193.099 12.032C192.491 12.096 191.867 12.16 191.227 12.224C190.587 12.256 190.027 12.288 189.547 12.32L189.355 12.608C190.635 13.952 191.275 15.536 191.275 17.36C191.275 18.992 190.827 20.448 189.931 21.728C189.035 23.008 187.803 24.032 186.235 24.8C184.699 25.536 182.939 25.904 180.955 25.904Z" fill="white" fill-opacity="0.8"/>
</svg>
