<svg width="239" height="63" viewBox="0 0 239 63" fill="none" xmlns="http://www.w3.org/2000/svg">
<path d="M12.099 37.444C9.805 37.444 7.83167 36.9753 6.179 36.038C4.551 35.1007 3.293 33.7563 2.405 32.005C1.517 30.2537 1.073 28.1817 1.073 25.789C1.073 23.1003 1.591 20.794 2.627 18.87C3.68767 16.9213 5.20467 15.429 7.178 14.393C9.15133 13.3323 11.4947 12.802 14.208 12.802C15.022 12.802 15.8607 12.8513 16.724 12.95C17.5873 13.0487 18.3767 13.1597 19.092 13.283C19.832 13.4063 20.424 13.5173 20.868 13.616C21.312 13.69 21.534 13.727 21.534 13.727L21.793 14.208C21.793 14.208 21.7313 14.504 21.608 15.096C21.4847 15.688 21.3367 16.502 21.164 17.538C21.016 18.5493 20.905 19.684 20.831 20.942L17.279 21.201C17.279 21.201 17.2913 21.0037 17.316 20.609C17.3653 20.1897 17.39 19.7087 17.39 19.166C17.39 18.13 17.0817 17.4023 16.465 16.983C15.8483 16.539 14.8 16.317 13.32 16.317C11.84 16.317 10.6067 16.613 9.62 17.205C8.63333 17.797 7.881 18.7097 7.363 19.943C6.86967 21.1517 6.623 22.681 6.623 24.531C6.623 26.5537 6.882 28.2803 7.4 29.711C7.918 31.1417 8.64567 32.227 9.583 32.967C10.5203 33.707 11.655 34.077 12.987 34.077C13.727 34.077 14.3683 33.9907 14.911 33.818C15.4783 33.6453 15.91 33.485 16.206 33.337C16.502 33.1643 16.65 33.078 16.65 33.078V29.563C16.65 28.823 16.539 28.342 16.317 28.12C16.1197 27.898 15.6757 27.787 14.985 27.787C14.763 27.787 14.4917 27.787 14.171 27.787C13.875 27.787 13.616 27.787 13.394 27.787C13.172 27.787 13.061 27.787 13.061 27.787L12.876 27.491L13.246 24.864C13.542 24.864 13.9613 24.8763 14.504 24.901C15.0467 24.901 15.651 24.9133 16.317 24.938C17.0077 24.9627 17.6983 24.975 18.389 24.975C19.0057 24.975 19.5977 24.9627 20.165 24.938C20.7323 24.8887 21.1887 24.8517 21.534 24.827C21.904 24.8023 22.089 24.79 22.089 24.79L22.348 26.196C21.9287 26.4673 21.608 26.8127 21.386 27.232C21.1887 27.6267 21.053 28.2187 20.979 29.008C20.905 29.7727 20.868 30.858 20.868 32.264C20.868 32.9547 20.8803 33.5837 20.905 34.151C20.9543 34.6937 21.0283 35.1377 21.127 35.483L20.794 35.927C20.794 35.927 20.4363 36.0627 19.721 36.334C19.0057 36.5807 17.9943 36.8273 16.687 37.074C15.3797 37.3207 13.8503 37.444 12.099 37.444ZM25.1143 34.891C25.8543 34.8417 26.3477 34.6443 26.5943 34.299C26.8657 33.9537 27.0013 33.3 27.0013 32.338V24.975C27.0013 24.1363 26.8903 23.569 26.6683 23.273C26.4463 22.9523 26.027 22.792 25.4103 22.792C25.2623 22.792 25.102 22.8043 24.9293 22.829C24.7813 22.829 24.7073 22.829 24.7073 22.829L24.5223 22.57L24.7443 20.72C25.805 20.5473 26.841 20.3623 27.8523 20.165C28.8637 19.9677 29.7023 19.8073 30.3683 19.684C31.059 19.536 31.4043 19.462 31.4043 19.462L31.7373 19.795C31.7373 19.795 31.7003 19.98 31.6263 20.35C31.577 20.6953 31.5277 21.1393 31.4783 21.682C31.429 22.2 31.392 22.7303 31.3673 23.273L31.5893 23.421C32.3787 22.2617 33.2297 21.3613 34.1423 20.72C35.055 20.0787 35.9307 19.758 36.7693 19.758C37.164 19.758 37.4723 19.7827 37.6943 19.832C37.941 19.8567 38.0643 19.869 38.0643 19.869L38.2123 20.165C38.2123 20.165 38.1753 20.3747 38.1013 20.794C38.052 21.1887 37.978 21.719 37.8793 22.385C37.8053 23.051 37.719 23.7787 37.6203 24.568C37.5463 25.3573 37.497 26.122 37.4723 26.862L35.1043 27.01C35.1043 25.826 35.0303 25.049 34.8823 24.679C34.759 24.2843 34.4877 24.087 34.0683 24.087C33.6737 24.087 33.2543 24.235 32.8103 24.531C32.3663 24.827 31.947 25.234 31.5523 25.752C31.5523 25.752 31.54 25.974 31.5153 26.418C31.4907 26.8373 31.4537 27.38 31.4043 28.046C31.3797 28.712 31.355 29.3903 31.3303 30.081C31.3057 30.7717 31.281 31.376 31.2563 31.894C31.2317 32.412 31.2193 32.745 31.2193 32.893C31.2193 33.5343 31.318 33.9783 31.5153 34.225C31.7373 34.4717 32.1197 34.595 32.6623 34.595C33.0077 34.595 33.4023 34.5827 33.8463 34.558C34.2903 34.5087 34.5123 34.484 34.5123 34.484L34.6233 34.706L34.2163 37.148C34.2163 37.148 34.056 37.1357 33.7353 37.111C33.4147 37.0863 32.9953 37.0617 32.4773 37.037C31.984 37.037 31.466 37.0247 30.9233 37C30.3807 37 29.8873 37 29.4433 37C28.7033 37 27.9757 37.0123 27.2603 37.037C26.545 37.0617 25.953 37.0863 25.4843 37.111C25.0403 37.1357 24.8183 37.148 24.8183 37.148L25.1143 34.891ZM47.6609 37.444C45.9342 37.444 44.4419 37.0987 43.1839 36.408C41.9506 35.7173 40.9886 34.7307 40.2979 33.448C39.6319 32.1653 39.2989 30.6607 39.2989 28.934C39.2989 27.5773 39.5209 26.3317 39.9649 25.197C40.4089 24.0623 41.0256 23.0757 41.8149 22.237C42.6042 21.3737 43.5292 20.7077 44.5899 20.239C45.6506 19.7457 46.7976 19.499 48.0309 19.499C52.1749 19.499 54.2469 21.5957 54.2469 25.789C54.2469 26.159 54.2099 26.5413 54.1359 26.936C54.0866 27.3307 54.0372 27.639 53.9879 27.861L53.5439 28.305H43.9609C44.0102 30.007 44.4049 31.339 45.1449 32.301C45.9096 33.2383 46.9702 33.7563 48.3269 33.855C49.6836 33.9537 51.2746 33.5837 53.0999 32.745L53.3589 32.893L53.9509 34.706C53.4576 35.076 52.8409 35.483 52.1009 35.927C51.3609 36.3463 50.5962 36.704 49.8069 37C49.0176 37.296 48.3022 37.444 47.6609 37.444ZM43.9609 26.27L49.0299 25.974C49.3259 25.9493 49.5109 25.8877 49.5849 25.789C49.6836 25.6657 49.7329 25.4437 49.7329 25.123C49.7329 24.235 49.5356 23.5567 49.1409 23.088C48.7462 22.6193 48.1666 22.385 47.4019 22.385C46.4399 22.385 45.6506 22.718 45.0339 23.384C44.4419 24.0253 44.0842 24.9873 43.9609 26.27ZM64.7517 37.444C63.0251 37.444 61.5327 37.0987 60.2747 36.408C59.0414 35.7173 58.0794 34.7307 57.3887 33.448C56.7227 32.1653 56.3897 30.6607 56.3897 28.934C56.3897 27.5773 56.6117 26.3317 57.0557 25.197C57.4997 24.0623 58.1164 23.0757 58.9057 22.237C59.6951 21.3737 60.6201 20.7077 61.6807 20.239C62.7414 19.7457 63.8884 19.499 65.1217 19.499C69.2657 19.499 71.3377 21.5957 71.3377 25.789C71.3377 26.159 71.3007 26.5413 71.2267 26.936C71.1774 27.3307 71.1281 27.639 71.0787 27.861L70.6347 28.305H61.0517C61.1011 30.007 61.4957 31.339 62.2357 32.301C63.0004 33.2383 64.0611 33.7563 65.4177 33.855C66.7744 33.9537 68.3654 33.5837 70.1907 32.745L70.4497 32.893L71.0417 34.706C70.5484 35.076 69.9317 35.483 69.1917 35.927C68.4517 36.3463 67.6871 36.704 66.8977 37C66.1084 37.296 65.3931 37.444 64.7517 37.444ZM61.0517 26.27L66.1207 25.974C66.4167 25.9493 66.6017 25.8877 66.6757 25.789C66.7744 25.6657 66.8237 25.4437 66.8237 25.123C66.8237 24.235 66.6264 23.5567 66.2317 23.088C65.8371 22.6193 65.2574 22.385 64.4927 22.385C63.5307 22.385 62.7414 22.718 62.1247 23.384C61.5327 24.0253 61.1751 24.9873 61.0517 26.27ZM84.3216 35.002C84.9382 34.8787 85.3699 34.6567 85.6166 34.336C85.8879 33.9907 86.0359 33.522 86.0606 32.93L86.1716 26.529C86.1716 25.4437 85.9742 24.642 85.5796 24.124C85.1849 23.5813 84.5806 23.31 83.7666 23.31C83.3719 23.31 82.9526 23.3963 82.5086 23.569C82.0892 23.717 81.7069 23.902 81.3616 24.124C81.0162 24.346 80.7326 24.5433 80.5106 24.716C80.4859 25.382 80.4489 26.1343 80.3996 26.973C80.3502 27.8117 80.3009 28.6503 80.2516 29.489C80.2269 30.303 80.2022 31.0307 80.1776 31.672C80.1529 32.3133 80.1406 32.7697 80.1406 33.041C80.1406 33.6823 80.2269 34.1263 80.3996 34.373C80.5722 34.595 80.8559 34.706 81.2506 34.706C81.4232 34.706 81.6329 34.706 81.8796 34.706C82.1262 34.6813 82.2496 34.669 82.2496 34.669L82.3236 34.817L81.9536 37.111C81.9536 37.111 81.7316 37.0987 81.2876 37.074C80.8436 37.0493 80.3132 37.0247 79.6966 37C79.1046 37 78.5619 37 78.0686 37C77.4272 37 76.7612 37.0123 76.0706 37.037C75.4046 37.0863 74.8372 37.1233 74.3686 37.148C73.9246 37.1973 73.7026 37.222 73.7026 37.222L73.9986 34.928C74.7139 34.8293 75.2072 34.632 75.4786 34.336C75.7746 34.04 75.9226 33.5467 75.9226 32.856V25.012C75.9226 24.1733 75.7869 23.5937 75.5156 23.273C75.2689 22.9523 74.8002 22.792 74.1096 22.792H73.6286L73.4806 22.607L73.6656 20.683C74.8002 20.5103 75.8856 20.3377 76.9216 20.165C77.9576 19.9677 78.8086 19.8073 79.4746 19.684C80.1406 19.536 80.4736 19.462 80.4736 19.462L80.7696 19.832C80.7696 19.832 80.7079 20.1033 80.5846 20.646C80.4859 21.164 80.4119 21.7437 80.3626 22.385L80.5106 22.533C80.8066 22.2863 81.1642 21.9903 81.5836 21.645C82.0276 21.2997 82.4839 20.9667 82.9526 20.646C83.4459 20.3253 83.9022 20.054 84.3216 19.832C84.7409 19.61 85.0739 19.499 85.3206 19.499C87.0719 19.499 88.4286 19.9183 89.3906 20.757C90.3772 21.5957 90.8706 22.7673 90.8706 24.272C90.8706 24.642 90.8336 25.2093 90.7596 25.974C90.6856 26.7387 90.5992 27.5773 90.5006 28.49C90.4266 29.4027 90.3526 30.266 90.2786 31.08C90.2292 31.894 90.2046 32.5353 90.2046 33.004C90.2046 33.6207 90.2909 34.077 90.4636 34.373C90.6362 34.6443 90.9322 34.78 91.3516 34.78C91.5736 34.78 91.8202 34.7677 92.0916 34.743C92.3629 34.7183 92.4986 34.706 92.4986 34.706L92.5726 34.854L92.2396 37.111C92.2396 37.111 92.0916 37.0987 91.7956 37.074C91.5242 37.074 91.1789 37.0617 90.7596 37.037C90.3402 37.037 89.9086 37.0247 89.4646 37C89.0206 37 88.6136 37 88.2436 37C87.8736 37 87.4542 37.0123 86.9856 37.037C86.5416 37.0863 86.0976 37.1233 85.6536 37.148C85.2096 37.1727 84.8396 37.1973 84.5436 37.222C84.2722 37.2713 84.1366 37.296 84.1366 37.296L84.3216 35.002ZM94.3439 37.37L94.6399 34.891C95.5773 34.743 96.2186 34.447 96.5639 34.003C96.9093 33.559 97.0819 32.7943 97.0819 31.709L97.1189 17.538C97.1189 16.7733 97.0326 16.2677 96.8599 16.021C96.6873 15.7497 96.3296 15.614 95.7869 15.614C95.5649 15.614 95.3183 15.6263 95.0469 15.651C94.7756 15.651 94.6399 15.651 94.6399 15.651L94.4549 15.355L94.7509 13.209C95.0469 13.209 95.4786 13.2213 96.0459 13.246C96.6133 13.246 97.2176 13.246 97.8589 13.246C98.5249 13.246 99.1416 13.246 99.7089 13.246C100.128 13.246 100.646 13.2337 101.263 13.209C101.904 13.1843 102.533 13.1597 103.15 13.135C103.767 13.1103 104.285 13.0857 104.704 13.061C105.123 13.0117 105.333 12.987 105.333 12.987L105.074 15.54C104.235 15.6387 103.619 15.7867 103.224 15.984C102.854 16.1567 102.607 16.428 102.484 16.798C102.385 17.1433 102.311 17.649 102.262 18.315C102.163 19.647 102.077 21.09 102.003 22.644C101.954 24.1733 101.917 25.7273 101.892 27.306C101.867 28.8847 101.855 30.414 101.855 31.894C101.855 32.5107 101.904 32.9917 102.003 33.337C102.126 33.6577 102.361 33.8797 102.706 34.003C103.051 34.1017 103.545 34.151 104.186 34.151C105.074 34.151 105.802 34.0893 106.369 33.966C106.936 33.818 107.38 33.5467 107.701 33.152C108.046 32.7327 108.318 32.1653 108.515 31.45C108.712 30.71 108.885 29.748 109.033 28.564L112.03 28.231L112.289 28.601C112.289 28.601 112.227 28.9957 112.104 29.785C112.005 30.5743 111.882 31.598 111.734 32.856C111.586 34.114 111.45 35.4707 111.327 36.926L110.957 37.296C110.957 37.296 110.624 37.2837 109.958 37.259C109.292 37.2343 108.429 37.1973 107.368 37.148C106.332 37.1233 105.21 37.0863 104.001 37.037C102.817 37.0123 101.682 37 100.597 37C99.5363 37 98.5249 37.0247 97.5629 37.074C96.6009 37.148 95.8239 37.2097 95.2319 37.259C94.6399 37.333 94.3439 37.37 94.3439 37.37ZM121.364 37.444C119.785 37.444 118.416 37.0987 117.257 36.408C116.098 35.7173 115.185 34.7307 114.519 33.448C113.878 32.1653 113.557 30.673 113.557 28.971C113.557 27.0963 113.927 25.456 114.667 24.05C115.432 22.6193 116.48 21.5093 117.812 20.72C119.169 19.906 120.723 19.499 122.474 19.499C124.077 19.499 125.459 19.8443 126.618 20.535C127.777 21.2257 128.665 22.2 129.282 23.458C129.923 24.716 130.244 26.2083 130.244 27.935C130.244 29.8097 129.874 31.4623 129.134 32.893C128.394 34.3237 127.346 35.446 125.989 36.26C124.657 37.0493 123.115 37.444 121.364 37.444ZM122.104 34.669C123.165 34.669 123.966 34.2497 124.509 33.411C125.076 32.5477 125.36 31.2897 125.36 29.637C125.36 28.083 125.212 26.788 124.916 25.752C124.62 24.6913 124.188 23.902 123.621 23.384C123.078 22.866 122.412 22.607 121.623 22.607C120.562 22.607 119.748 23.0263 119.181 23.865C118.638 24.7037 118.367 25.9617 118.367 27.639C118.367 29.193 118.515 30.5003 118.811 31.561C119.107 32.597 119.526 33.374 120.069 33.892C120.636 34.41 121.315 34.669 122.104 34.669ZM139.628 45.954C138.321 45.954 137.174 45.732 136.187 45.288C135.225 44.8687 134.473 44.2643 133.93 43.475C133.388 42.7103 133.116 41.7977 133.116 40.737C133.412 40.4163 133.893 40.0093 134.559 39.516C135.25 39.0227 136.002 38.5293 136.816 38.036V37.777C135.632 37.5797 134.72 37.1603 134.078 36.519C133.437 35.853 133.079 35.0143 133.005 34.003C133.449 33.559 133.918 33.1273 134.411 32.708C134.929 32.2887 135.472 31.894 136.039 31.524V30.784L138.555 31.524C138.013 31.8693 137.606 32.1777 137.334 32.449C137.088 32.7203 136.964 32.9917 136.964 33.263C136.964 33.707 137.26 34.0277 137.852 34.225C138.469 34.4223 139.246 34.5703 140.183 34.669C141.145 34.7677 142.157 34.8787 143.217 35.002C144.278 35.1253 145.277 35.3227 146.214 35.594C147.152 35.8653 147.916 36.2723 148.508 36.815C149.125 37.3577 149.433 38.11 149.433 39.072C149.433 39.9353 149.162 40.774 148.619 41.588C148.077 42.4267 147.337 43.1667 146.399 43.808C145.487 44.474 144.438 44.992 143.254 45.362C142.095 45.7567 140.886 45.954 139.628 45.954ZM141.034 43.216C141.848 43.216 142.576 43.0927 143.217 42.846C143.859 42.624 144.364 42.3033 144.734 41.884C145.129 41.4647 145.326 40.996 145.326 40.478C145.326 40.0833 145.166 39.7627 144.845 39.516C144.549 39.294 143.957 39.0843 143.069 38.887C142.181 38.6897 140.862 38.48 139.11 38.258C138.666 38.6527 138.321 39.0843 138.074 39.553C137.828 40.0217 137.704 40.478 137.704 40.922C137.704 41.6373 137.988 42.1923 138.555 42.587C139.147 43.0063 139.974 43.216 141.034 43.216ZM140.923 29.859C141.811 29.859 142.49 29.5507 142.958 28.934C143.452 28.3173 143.698 27.4293 143.698 26.27C143.698 24.9873 143.415 23.9883 142.847 23.273C142.28 22.5577 141.503 22.2 140.516 22.2C139.628 22.2 138.95 22.5083 138.481 23.125C138.013 23.7417 137.778 24.642 137.778 25.826C137.778 27.084 138.05 28.0707 138.592 28.786C139.16 29.5013 139.937 29.859 140.923 29.859ZM140.257 32.301C138.851 32.301 137.618 32.0543 136.557 31.561C135.497 31.043 134.67 30.34 134.078 29.452C133.511 28.5393 133.227 27.491 133.227 26.307C133.227 24.9997 133.56 23.828 134.226 22.792C134.892 21.756 135.805 20.942 136.964 20.35C138.124 19.758 139.431 19.462 140.886 19.462C141.676 19.462 142.366 19.5237 142.958 19.647C143.55 19.7703 144.13 19.832 144.697 19.832C145.191 19.7827 145.906 19.647 146.843 19.425C147.781 19.203 148.792 18.9317 149.877 18.611L150.099 18.759L149.618 21.608C149.15 21.6573 148.669 21.7067 148.175 21.756C147.682 21.7807 147.25 21.8053 146.88 21.83L146.732 22.052C147.719 23.088 148.212 24.309 148.212 25.715C148.212 26.973 147.867 28.0953 147.176 29.082C146.486 30.0687 145.536 30.858 144.327 31.45C143.143 32.0173 141.787 32.301 140.257 32.301Z" fill="black" fill-opacity="0.8"/>
<path fill-rule="evenodd" clip-rule="evenodd" d="M170.067 24.1C170.067 19.6265 173.827 16 178.467 16H185V22.3C185 26.7735 181.239 30.4 176.6 30.4H171.933V43H170.067V35.8H165.4C160.761 35.8 157 32.1735 157 27.7V21.4H163.533C166.172 21.4 168.527 22.5733 170.067 24.4084V24.1ZM172.207 27.0636L177.807 21.6636L179.127 22.9364L173.527 28.3364L172.207 27.0636ZM168.473 33.7364L162.873 28.3364L164.193 27.0636L169.793 32.4636L168.473 33.7364Z" fill="#70A261"/>
</svg>
