<svg width="36" height="36" viewBox="0 0 36 36" fill="none" xmlns="http://www.w3.org/2000/svg">
<path d="M30.93 10.4493L25.5936 5.10758C21.9456 1.45602 20.1216 -0.369768 18.1625 0.0624287C16.2036 0.494644 15.3153 2.91879 13.5389 7.76709L12.3366 11.0486C11.863 12.3411 11.6262 12.9873 11.2002 13.4872C11.009 13.7115 10.7915 13.9119 10.5524 14.0841C10.0195 14.4678 9.3565 14.6505 8.03053 15.0161C5.04187 15.84 3.54754 16.252 2.98444 17.2297C2.74101 17.6524 2.61433 18.1323 2.6174 18.6202C2.62453 19.7487 3.72052 20.8458 5.91251 23.0399L8.45874 25.5893L0.402202 33.6534C-0.134067 34.1902 -0.134067 35.0607 0.402202 35.5974C0.93847 36.1342 1.80795 36.1342 2.34422 35.5974L10.401 27.5329L13.0398 30.1742C15.2457 32.3823 16.3487 33.4864 17.4839 33.488C17.9624 33.4887 18.4325 33.3644 18.8481 33.1273C19.8344 32.5644 20.2485 31.0591 21.0769 28.0484C21.4412 26.7249 21.6232 26.063 22.0055 25.5302C22.1729 25.2971 22.3669 25.0844 22.584 24.8965C23.0795 24.4673 23.7216 24.2261 25.0057 23.7437L28.3249 22.4965C33.1197 20.6951 35.5171 19.7944 35.9397 17.8407C36.3622 15.8868 34.5514 14.0743 30.93 10.4493Z" fill="#63403B"/>
</svg>
