<svg width="28" height="28" viewBox="0 0 28 28" fill="none" xmlns="http://www.w3.org/2000/svg">
<path d="M13.3765 6.01591C11.3482 6.01591 9.80695 5.49797 8.793 4.47468C7.4086 3.07814 7.4501 1.19488 7.46366 0.576167L7.46552 0.470688C7.46552 0.212649 7.67407 0.00409741 7.93211 0.00409741L8.00675 0.00223827C10.4159 -0.0486148 11.7933 0.77679 12.5212 1.48655C13.5016 2.44264 13.998 3.80933 13.998 5.54839C13.998 5.80315 13.7932 6.01126 13.5379 6.01498C13.4833 6.01542 13.4296 6.01591 13.3765 6.01591Z" fill="#91CF96"/>
<path d="M16.7958 13.5347C16.5378 13.5347 16.3293 13.3257 16.3293 13.0681C16.3293 11.3655 16.8271 10.0151 17.8103 9.05485C18.5858 8.29659 20.071 7.40863 22.7685 7.4679L22.8618 7.46933C23.1198 7.46933 23.3284 7.67837 23.3284 7.93591L23.3312 8.0829C23.348 8.74081 23.3918 10.4887 22.0783 11.8354C20.9795 12.9631 19.2017 13.5347 16.7958 13.5347Z" fill="#91CF96"/>
<path d="M20.0293 10.5638C19.9346 10.3235 19.6616 10.2078 19.4241 10.3016C18.4992 10.6669 16.9884 12.1353 16.4811 12.7195C15.9441 13.0742 15.4607 13.5562 15.0305 14.0517C15.5825 11.7215 15.6954 8.6139 13.9848 5.4526C13.9708 5.38681 13.9461 5.32289 13.9027 5.26597C13.0329 4.12139 12.1011 3.2768 10.9691 2.60772C10.7479 2.47709 10.4615 2.55031 10.3303 2.77149C10.1992 2.99361 10.2725 3.27964 10.4941 3.41076C11.4898 3.99962 12.3167 4.7476 13.0917 5.74754C13.0959 5.75689 13.0954 5.76668 13.1001 5.77505C16.3818 11.666 12.7115 17.4216 12.6741 17.479C12.5336 17.6946 12.5938 17.9834 12.8094 18.1243C12.8883 18.1761 12.9769 18.2008 13.0647 18.2008C13.2163 18.2008 13.3657 18.1266 13.4552 17.9899C13.4674 17.9713 13.828 17.4057 14.2354 16.4562C14.2513 16.4436 14.2699 16.4376 14.2844 16.4226C14.4911 16.2122 14.7226 15.9182 14.9904 15.5781C15.5582 14.8562 16.2652 13.958 17.0458 13.4625C17.0705 13.4466 17.0863 13.4233 17.1069 13.4041C17.1209 13.3911 17.1395 13.385 17.1522 13.3696C17.6608 12.7682 19.0751 11.443 19.7671 11.1696C20.0064 11.0748 20.124 10.8036 20.0293 10.5638Z" fill="#5ABA63"/>
<path d="M23.3283 18.8673C23.3283 19.2728 22.9998 19.6013 22.5943 19.6013H5.39798C4.99252 19.6013 4.664 19.2728 4.664 18.8673V18.4683C4.664 18.0633 4.99247 17.7349 5.39798 17.7349H22.5943C22.9998 17.7349 23.3283 18.0633 23.3283 18.4683V18.8673Z" fill="#7F5B53"/>
<path d="M19.1288 27.5334H8.86346L6.06381 19.6011H21.9285L19.1288 27.5334Z" fill="#AF8066"/>
<path d="M20.2081 24.4757L19.2987 23.9489C18.9174 23.7203 18.4336 23.7576 18.0925 24.0422L17.3828 24.6334C16.9973 24.9549 16.5256 25.1784 16.024 25.1994C15.5481 25.2195 15.1211 25.0847 14.8799 24.7944L13.0629 22.8673C12.509 22.3134 12.0615 22.2864 11.2413 22.6247C10.7592 22.8234 10.3454 23.3339 9.79664 23.3339C9.13315 23.3339 8.65765 23.0848 8.39682 22.8674L6.69461 21.3882L8.86341 27.5334H19.1288L20.2081 24.4757Z" fill="#D9AA94"/>
<path d="M22.3951 28.0001H5.13059C4.87305 28.0001 4.664 27.791 4.664 27.5335C4.664 27.2759 4.87305 27.0669 5.13059 27.0669H22.3951C22.6526 27.0669 22.8617 27.2759 22.8617 27.5335C22.8617 27.791 22.6527 28.0001 22.3951 28.0001Z" fill="#7F5B53"/>
</svg>
