<svg width="36" height="36" viewBox="0 0 36 36" fill="none" xmlns="http://www.w3.org/2000/svg">
<path d="M18.0002 36C27.9413 36 36.0001 27.9411 36.0001 18C36.0001 8.05887 27.9413 0 18.0002 0C8.05905 0 0.000183105 8.05887 0.000183105 18C0.000183105 27.9411 8.05905 36 18.0002 36Z" fill="#FFC500"/>
<path d="M19.2759 33.4513C9.33292 33.4513 1.27589 25.3913 1.27589 15.4513C1.27343 13.1418 1.71556 10.8535 2.57816 8.71118C0.886076 11.5137 -0.00559652 14.7264 2.64304e-05 18.0001C2.64304e-05 27.9401 8.05998 36.0001 18 36.0001C25.5584 36.0001 32.0287 31.3424 34.6948 24.7402C31.5447 29.961 25.8165 33.4513 19.2759 33.4513Z" fill="#FF9F1E"/>
<path d="M18 2.95892e-05C14.1433 -0.00698 10.3875 1.2316 7.29152 3.53139C11.5412 1.89148 16.2126 1.69667 20.584 2.97705C20.5464 3.02323 20.5139 3.07339 20.4872 3.12664C19.9534 4.12093 21.0415 5.73996 22.9128 6.74306C24.7841 7.74615 26.7375 7.75789 27.2713 6.76652C27.3222 6.66965 27.3587 6.56592 27.3798 6.45856C32.2252 10.2128 35.3547 16.0818 35.384 22.6811C35.7941 21.1546 36.0012 19.5807 36 18C36 8.05999 27.94 2.95892e-05 18 2.95892e-05Z" fill="#FFE059"/>
<path d="M28.7132 8.70592C28.8084 8.21617 28.205 7.68685 27.3654 7.52365C26.5258 7.36046 25.7681 7.62518 25.6729 8.11493C25.5777 8.60468 26.1811 9.13401 27.0207 9.2972C27.8602 9.4604 28.618 9.19567 28.7132 8.70592Z" fill="#FFE059"/>
<path d="M24.7962 9.38352C24.9355 9.14223 24.7641 8.78248 24.4134 8.58C24.0627 8.37752 23.6655 8.40898 23.5262 8.65027C23.3869 8.89156 23.5582 9.2513 23.9089 9.45379C24.2597 9.65627 24.6569 9.62481 24.7962 9.38352Z" fill="#FFE059"/>
<path d="M23.8397 17.5688C22.6283 17.5688 21.5372 16.7417 20.7688 15.237C20.7121 15.1338 20.6767 15.0203 20.6647 14.9032C20.6527 14.786 20.6644 14.6677 20.6989 14.5551C20.7335 14.4426 20.7903 14.3381 20.866 14.2479C20.9417 14.1577 21.0347 14.0836 21.1395 14.03C21.2444 13.9764 21.3589 13.9444 21.4763 13.9359C21.5938 13.9274 21.7117 13.9425 21.8232 13.9804C21.9347 14.0183 22.0374 14.0781 22.1253 14.1565C22.2132 14.2348 22.2846 14.3299 22.335 14.4363C22.775 15.2957 23.3381 15.809 23.8397 15.809C24.3412 15.809 24.9044 15.2957 25.3443 14.4363C25.3948 14.3299 25.4661 14.2348 25.554 14.1565C25.6419 14.0781 25.7447 14.0183 25.8562 13.9804C25.9676 13.9425 26.0856 13.9274 26.203 13.9359C26.3205 13.9444 26.435 13.9764 26.5398 14.03C26.6446 14.0836 26.7377 14.1577 26.8133 14.2479C26.889 14.3381 26.9458 14.4426 26.9804 14.5551C27.015 14.6677 27.0266 14.786 27.0146 14.9032C27.0026 15.0203 26.9672 15.1338 26.9106 15.237C26.1421 16.7417 25.051 17.5688 23.8397 17.5688Z" fill="#00305F"/>
<path d="M12.1604 17.5688C10.949 17.5688 9.85793 16.7417 9.08947 15.237C9.0328 15.1338 8.99741 15.0203 8.98542 14.9032C8.97342 14.786 8.98505 14.6677 9.01962 14.5551C9.05419 14.4426 9.111 14.3381 9.18668 14.2479C9.26236 14.1577 9.35537 14.0836 9.46021 14.03C9.56505 13.9764 9.67957 13.9444 9.79701 13.9359C9.91444 13.9274 10.0324 13.9425 10.1439 13.9804C10.2553 14.0183 10.3581 14.0781 10.446 14.1565C10.5339 14.2348 10.6052 14.3299 10.6557 14.4363C11.0957 15.2957 11.6588 15.809 12.1604 15.809C12.6619 15.809 13.225 15.2957 13.665 14.4363C13.7155 14.3299 13.7868 14.2348 13.8747 14.1565C13.9626 14.0781 14.0654 14.0183 14.1768 13.9804C14.2883 13.9425 14.4063 13.9274 14.5237 13.9359C14.6411 13.9444 14.7557 13.9764 14.8605 14.03C14.9653 14.0836 15.0583 14.1577 15.134 14.2479C15.2097 14.3381 15.2665 14.4426 15.3011 14.5551C15.3357 14.6677 15.3473 14.786 15.3353 14.9032C15.3233 15.0203 15.2879 15.1338 15.2312 15.237C14.4628 16.7417 13.3717 17.5688 12.1604 17.5688Z" fill="#00305F"/>
<path d="M21.2791 23.7605C21.067 23.7608 20.8619 23.6848 20.7013 23.5463C19.7803 22.7486 18.8711 22.3438 18 22.3438C17.1289 22.3438 16.2196 22.7486 15.2987 23.5463C15.2112 23.622 15.1098 23.6798 15 23.7162C14.8903 23.7527 14.7744 23.7672 14.6591 23.7589C14.5437 23.7506 14.4312 23.7196 14.3278 23.6678C14.2244 23.616 14.1322 23.5443 14.0565 23.4569C13.9809 23.3695 13.9231 23.268 13.8867 23.1582C13.8502 23.0485 13.8357 22.9326 13.844 22.8173C13.8523 22.7019 13.8833 22.5894 13.9351 22.486C13.9869 22.3826 14.0586 22.2904 14.146 22.2147C15.3984 21.1325 16.6948 20.584 18 20.584C19.3052 20.584 20.6016 21.1325 21.854 22.2147C21.9898 22.3321 22.0864 22.4881 22.131 22.6619C22.1756 22.8358 22.166 23.0191 22.1034 23.1873C22.0409 23.3555 21.9284 23.5005 21.781 23.603C21.6337 23.7054 21.4586 23.7604 21.2791 23.7605Z" fill="#00305F"/>
<path d="M7.8107 22.4435C8.2452 22.3697 8.64286 22.1536 8.94122 21.8293C9.23959 21.5049 9.42174 21.0906 9.45906 20.6514L9.64971 18.4693C9.65955 18.3478 9.63767 18.2258 9.5862 18.1152C9.53473 18.0047 9.45545 17.9095 9.3561 17.8388C9.25676 17.7681 9.14076 17.7245 9.01948 17.7121C8.89819 17.6998 8.77577 17.7191 8.66421 17.7683L6.66389 18.6658C6.26192 18.8461 5.93119 19.1547 5.72363 19.5433C5.51606 19.9319 5.44341 20.3784 5.51708 20.8128C5.60536 21.333 5.89648 21.7969 6.32651 22.1026C6.75655 22.4084 7.29035 22.531 7.8107 22.4435Z" fill="#4795FF"/>
</svg>
