<svg width="30" height="30" viewBox="0 0 30 30" fill="none" xmlns="http://www.w3.org/2000/svg">
<g clip-path="url(#clip0_73_405)">
<path d="M14.9999 5.00014C14.6547 5.00014 14.3755 4.71999 14.3755 4.37486V0.624863C14.3755 0.279677 14.6548 0 14.9999 0C15.3459 0 15.6252 0.279677 15.6252 0.624863V4.37486C15.6252 4.71999 15.3459 5.00014 14.9999 5.00014Z" fill="#F6BB42"/>
<path d="M14.9999 30C14.6556 30 14.3755 29.7198 14.3755 29.3756V25.6257C14.3755 25.2796 14.6556 24.9994 15.0008 24.9994C15.346 24.9994 15.6252 25.2795 15.6252 25.6257V29.3756C15.6252 29.7198 15.3459 30 14.9999 30Z" fill="#F6BB42"/>
<path d="M7.92935 7.92898C7.68489 8.17297 7.28937 8.17297 7.04585 7.92898L4.39358 5.27718C4.15006 5.03318 4.15006 4.63766 4.39358 4.39367C4.63804 4.14921 5.03356 4.14921 5.27802 4.39367L7.92935 7.04501C8.17382 7.289 8.17382 7.68499 7.92935 7.92898Z" fill="#FFCE54"/>
<path d="M25.6074 25.6065C25.3629 25.851 24.9674 25.851 24.7229 25.6065L22.0715 22.9551C21.8271 22.7106 21.8271 22.3152 22.0715 22.0717C22.316 21.8272 22.7115 21.8272 22.956 22.0717L25.6074 24.723C25.8509 24.9666 25.8509 25.3621 25.6074 25.6065Z" fill="#FFCE54"/>
<path d="M5.00066 15C5.00066 15.3452 4.72052 15.6248 4.37533 15.6248H0.625332C0.280145 15.6248 0.000937529 15.3452 0 15C0 14.6548 0.280145 14.3751 0.625332 14.3751H4.37533C4.72046 14.3751 5.00066 14.6548 5.00066 15Z" fill="#F6BB42"/>
<path d="M30.0002 15C30.0002 15.3452 29.7209 15.6248 29.3758 15.6248H25.6258C25.2806 15.6248 25.0005 15.3452 25.0005 15C25.0005 14.6548 25.2806 14.3751 25.6258 14.3751H29.3758C29.7209 14.3751 30.0002 14.6548 30.0002 15Z" fill="#F6BB42"/>
<path d="M7.92935 22.0715C8.17382 22.3151 8.17382 22.7105 7.92935 22.955L5.27802 25.6064C5.03356 25.8509 4.63804 25.8509 4.39358 25.6064C4.15006 25.362 4.15006 24.9664 4.39358 24.7229L7.04585 22.0715C7.28937 21.8271 7.68489 21.8271 7.92935 22.0715Z" fill="#FFCE54"/>
<path d="M25.6074 4.39308C25.8508 4.63749 25.8508 5.03301 25.6074 5.277L22.955 7.9288C22.7115 8.17279 22.316 8.17279 22.0715 7.9288C21.8271 7.68481 21.8271 7.28882 22.0715 7.04483L24.7229 4.39303C24.9674 4.14909 25.3629 4.14909 25.6074 4.39308Z" fill="#FFCE54"/>
<path d="M14.9998 23.1243C10.5202 23.1243 6.87549 19.4805 6.87549 15C6.87549 10.5199 10.5202 6.87512 14.9998 6.87512C19.4805 6.87512 23.1252 10.5199 23.1252 15C23.1252 19.4806 19.4805 23.1243 14.9998 23.1243Z" fill="#FFCE54"/>
<path d="M15.0002 6.24988C10.168 6.24988 6.25049 10.1674 6.25049 15C6.25049 19.8322 10.168 23.7506 15.0002 23.7506C19.8332 23.7506 23.7508 19.8322 23.7508 15C23.7508 10.1674 19.8332 6.24988 15.0002 6.24988ZM20.3038 20.3027C18.8875 21.72 17.0042 22.5 15.0002 22.5C12.9969 22.5 11.1137 21.7199 9.69743 20.3027C8.28112 18.8874 7.50016 17.0032 7.50016 15C7.50016 12.9969 8.28112 11.1131 9.69743 9.69682C11.1137 8.2801 12.997 7.50001 15.0002 7.50001C17.0042 7.50001 18.8875 8.2801 20.3038 9.69682C21.7201 11.1131 22.5002 12.9969 22.5002 15C22.5002 17.0032 21.7201 18.8874 20.3038 20.3027Z" fill="#F6BB42"/>
</g>
<defs>
<clipPath id="clip0_73_405">
<rect width="30" height="30" fill="white"/>
</clipPath>
</defs>
</svg>
