<svg width="31" height="31" viewBox="0 0 31 31" fill="none" xmlns="http://www.w3.org/2000/svg">
<path d="M5.1815 24.206C8.32912 22.4269 11.8844 21.4945 15.5 21.5C19.25 21.5 22.7705 22.4825 25.8185 24.206M20 12.5C20 13.6935 19.5259 14.8381 18.682 15.682C17.8381 16.5259 16.6935 17 15.5 17C14.3065 17 13.1619 16.5259 12.318 15.682C11.4741 14.8381 11 13.6935 11 12.5C11 11.3065 11.4741 10.1619 12.318 9.31802C13.1619 8.47411 14.3065 8 15.5 8C16.6935 8 17.8381 8.47411 18.682 9.31802C19.5259 10.1619 20 11.3065 20 12.5ZM29 15.5C29 17.2728 28.6508 19.0283 27.9724 20.6662C27.2939 22.3041 26.2995 23.7923 25.0459 25.0459C23.7923 26.2995 22.3041 27.2939 20.6662 27.9724C19.0283 28.6508 17.2728 29 15.5 29C13.7272 29 11.9717 28.6508 10.3338 27.9724C8.69588 27.2939 7.20765 26.2995 5.95406 25.0459C4.70047 23.7923 3.70606 22.3041 3.02763 20.6662C2.34919 19.0283 2 17.2728 2 15.5C2 11.9196 3.42232 8.4858 5.95406 5.95406C8.4858 3.42232 11.9196 2 15.5 2C19.0804 2 22.5142 3.42232 25.0459 5.95406C27.5777 8.4858 29 11.9196 29 15.5Z" stroke="black" stroke-width="3" stroke-linecap="round" stroke-linejoin="round"/>
</svg>
